<svg xmlns="http://www.w3.org/2000/svg" xml:space="preserve" viewBox="0 0 512 512">
  <path fill="#757575" d="M266.2 501.9c0 5.6-4.5 10.1-10.1 10.1s-10.1-4.5-10.1-10.1 4.5-10.1 10.1-10.1 10.1 4.6 10.1 10.1zm-221.9 0v-12.7c0-67.2 45.6-103.8 65.5-115.8 27.1-16.2 56.2-28.5 86.7-36.6v-16.2c-5.1-4.5-9.7-9.6-13.8-15.3-12.1-16.7-21.9-34.8-29.4-54-6.8-.9-13-5.3-16.2-12-3-6.4-24.2-45.5-27.4-52.5-8.2-17.6 2.5-35.1 16.1-40.7 2.3-.9 4.6-1.6 7-2-2.2-9-3.3-18.3-3.3-27.7C129.5 52.2 181.7 0 245.9 0c11.3 0 22 4.3 30.1 12.1.1.1.2.1.3 0C284.4 4.3 295.1 0 306.4 0c43.6 0 79.1 35.5 79.1 79.1v18.4c0 15.8-2.2 31.4-6.5 46.4 2.4.4 4.8 1 7.1 2.1 16.7 7.6 23.3 26.3 16.1 40.7-3.4 6.9-24.4 46-27.4 52.5-3.2 6.8-9.4 11.1-16.2 12-7.4 19.2-17.3 37.4-29.4 54.1-4.1 5.7-8.8 10.8-13.8 15.3v16.2c30.4 8.1 59.6 20.3 86.7 36.6 20 12 65.5 48.6 65.5 115.8V502c0 5.6-4.5 10.1-10.1 10.1h-156c-5.8 0-10.4-4.9-10.1-10.8.4-5.4 5-9.4 10.4-9.4h145.7c0-42.6-21.4-80.6-55.7-101.2-24.3-14.5-50.3-25.7-77.4-33.3-5.4 27.2-29.5 47.8-58.3 47.8-28.8 0-52.9-20.6-58.3-47.8-27.2 7.6-53.2 18.8-77.4 33.3-34.4 20.6-55.7 57.5-55.7 101.2h146.2c5.8 0 10.4 4.9 10 10.8-.4 5.3-5.1 9.4-10.4 9.4h-156c-5.6-.1-10.2-4.6-10.2-10.2zM149.7 118c.9-1.1 14.8-18.2 38.8-18.2 11.9 0 23.4 4.2 32.5 11.6 8.4 6.8 19 10.6 30 10.6 26 0 46.8-20.9 47.4-47.6.1-5.5 4.6-9.9 10.1-9.9s10 4.4 10.1 9.9c.3 12.9 7.2 24 18.1 29.1 10.7 5 19.6 12.6 26.2 21.9 1.7-9.2 2.6-18.5 2.6-27.9V79.1c0-32.5-26.4-59-59-59-6 0-11.7 2.3-16.1 6.5-7.9 7.7-20.4 7.7-28.3 0-4.3-4.2-10.1-6.5-16.1-6.5-53.2.1-96.8 42.7-96.3 97.9zm145.6 216c-23.9 11.3-51.4 12.6-78.6 0v11.7c0 21.7 17.6 39.3 39.3 39.3s39.3-17.6 39.3-39.3V334zm17.7-40.5c12.5-17.3 22.4-36.3 29.4-56.4 1.2-3.5 5.9-8.9 13.8-5.7 3.7-8 24.8-46.9 27.8-53.3 2.3-4.9-.5-11.3-5.8-13.5-3-1.2-6.3-1-9.2.5-6.3 3.2-14-.6-14.8-7.5-1.8-15.7-12-29-26.3-35.7-7.2-3.4-13.4-8.4-18.2-14.5-3 5.5-7 10.4-11.3 15-19.1 20.6-59.1 29.8-90.3 4.7-12.1-9.8-30.2-9.2-41.4 2.1-6.1 6.2-9.6 14.5-9.6 22.9v4c0 7.4-7.8 12.3-14.6 9-2.8-1.4-6-1.4-8.9-.3-4.6 1.8-8.5 7.7-5.8 13.5 3 6.5 24.5 46 27.7 53.2 8.9-3.1 13 3.3 14 5.9 7 20 16.9 39 29.4 56.2 13.4 18.6 34.2 29.2 56.9 29.2 23-.1 43.7-10.7 57.2-29.3zm159.7-233V10.1c0-5.6-4.5-10.1-10.1-10.1h-50.4c-5.6 0-10.1 4.5-10.1 10.1s4.5 10.1 10.1 10.1h40.3v40.3c0 5.6 4.5 10.1 10.1 10.1s10.1-4.6 10.1-10.1zm0 275.1v-50.4c0-5.6-4.5-10.1-10.1-10.1s-10.1 4.5-10.1 10.1v40.3h-40.3c-5.6 0-10.1 4.5-10.1 10.1s4.5 10.1 10.1 10.1h50.4c5.6 0 10.1-4.5 10.1-10.1zM59.5 60.5V20.2h40.3c5.6 0 10.1-4.5 10.1-10.1S105.3 0 99.8 0H49.4c-5.6 0-10.1 4.5-10.1 10.1v50.4c0 5.6 4.5 10.1 10.1 10.1S59.5 66 59.5 60.5zm50.4 275.1c0-5.6-4.5-10.1-10.1-10.1H59.5v-40.3c0-5.6-4.5-10.1-10.1-10.1s-10.1 4.5-10.1 10.1v50.4c0 5.6 4.5 10.1 10.1 10.1h50.4c5.5 0 10.1-4.5 10.1-10.1z"/>
</svg>
